<?xml version="1.0" standalone="no"?>
<!DOCTYPE svg PUBLIC "-//W3C//DTD SVG 20010904//EN"
 "http://www.w3.org/TR/2001/REC-SVG-20010904/DTD/svg10.dtd">
<svg xmlns="http://www.w3.org/2000/svg"
 width="512.000000pt" height="512.000000pt" viewBox="0 0 512.000000 512.000000"
 preserveAspectRatio="xMidYMid meet">
<g transform="translate(0.000000,512.000000) scale(0.100000,-0.100000)"
fill="#000000" stroke="none">
<path d="M0 2560 l0 -2560 2560 0 2560 0 0 2560 0 2560 -2560 0 -2560 0 0
-2560z m3874 1429 c52 -41 19 -129 -48 -129 -67 0 -99 77 -51 125 30 30 64 32
99 4z m-339 -11 c61 -15 123 -55 155 -100 17 -23 30 -45 30 -49 0 -32 -186
-176 -283 -220 -34 -16 -34 -19 6 -45 l33 -21 39 35 c92 81 236 122 355 102
352 -59 491 -483 243 -737 -96 -98 -249 -148 -381 -124 -144 27 -256 110 -319
239 -37 75 -38 78 -38 191 0 100 3 123 23 166 26 56 30 48 -48 98 -100 65 -62
145 122 260 37 23 67 45 68 49 1 27 -241 19 -299 -10 -33 -16 -36 -22 -52 -97
-35 -161 -175 -616 -251 -812 -36 -95 -61 -134 -74 -120 -15 15 175 1039 204
1097 22 45 120 96 212 109 71 10 192 5 255 -11z m-590 -220 c-18 -141 -58
-366 -76 -425 -36 -117 -88 -173 -160 -173 -70 0 -143 81 -180 199 -17 56 -49
246 -49 287 0 11 28 -34 62 -99 69 -132 127 -207 162 -207 55 0 144 155 207
361 19 60 35 109 37 109 2 0 1 -24 -3 -52z m-767 -194 c-8 -8 -396 -193 -480
-229 -56 -24 -67 -32 -63 -50 20 -88 45 -264 56 -385 11 -141 6 -448 -10 -565
l-7 -50 -21 56 c-71 185 -119 443 -160 868 l-5 53 -56 -6 c-99 -10 -463 -28
-468 -23 -8 8 239 102 403 153 277 86 843 210 811 178z m160 -215 c68 -23 148
-78 193 -132 104 -126 129 -315 62 -460 -134 -284 -504 -345 -716 -118 -148
158 -157 404 -20 576 107 134 312 191 481 134z m867 -650 c9 -27 21 -51 26
-54 5 -4 9 -10 9 -16 0 -18 -28 -9 -59 20 l-31 29 -20 -34 c-26 -42 -76 -84
-99 -84 -10 0 -30 9 -45 21 -20 15 -26 29 -26 57 0 69 91 192 141 192 10 0 19
2 19 5 0 20 32 213 37 225 4 8 12 -59 19 -149 7 -90 20 -185 29 -212z m163
223 c6 -9 12 -31 12 -50 0 -27 -9 -43 -39 -74 -39 -39 -44 -61 -14 -72 15 -6
67 40 89 79 23 39 25 6 3 -44 -47 -110 -134 -124 -174 -28 -19 47 -19 96 1
147 26 64 88 85 122 42z m-1955 -158 c10 -3 -5 -23 -50 -66 -78 -75 -128 -149
-164 -242 -27 -71 -55 -194 -45 -203 4 -4 276 57 324 72 6 3 12 -2 12 -9 0
-17 -63 -57 -227 -143 l-123 -65 0 -216 c0 -198 8 -376 26 -599 5 -72 4 -83
-9 -83 -37 0 -140 423 -177 721 l-12 97 -84 -34 c-46 -19 -88 -34 -93 -34 -5
0 -12 32 -16 71 -8 83 -15 75 101 121 l82 32 6 72 c18 196 101 361 223 446 71
48 182 79 226 62z m2606 -20 c23 -19 31 -34 31 -57 -1 -92 -121 -230 -240
-277 -45 -18 -51 -27 -43 -70 14 -84 58 -118 136 -106 89 14 243 104 355 210
28 27 52 44 52 39 0 -15 -119 -151 -184 -211 -186 -169 -343 -207 -438 -106
-136 145 -43 470 164 573 77 39 125 40 167 5z m-569 -156 c0 -6 -18 -27 -40
-45 -53 -46 -127 -150 -147 -208 -31 -91 -5 -177 66 -219 54 -31 224 -31 306
0 8 4 15 1 15 -4 0 -6 -40 -31 -89 -55 -223 -112 -439 -74 -482 85 -37 137 59
288 256 406 89 52 115 62 115 40z m-545 -238 c35 -51 69 -151 105 -312 16 -73
32 -143 35 -155 4 -16 1 -23 -9 -23 -14 0 -66 83 -154 248 -27 52 -52 90 -55
85 -4 -6 -145 -373 -162 -421 -4 -10 -12 -9 -37 4 -18 9 -34 17 -35 18 -12 10
-118 494 -110 502 3 3 30 -43 62 -101 l57 -106 53 108 c55 111 112 189 149
203 32 12 72 -8 101 -50z m-631 -127 c-99 -151 -190 -331 -207 -408 -13 -64
-6 -85 30 -85 60 0 175 161 189 264 4 24 9 48 13 54 11 17 47 22 64 10 17 -13
141 -287 134 -295 -3 -2 -36 30 -74 72 l-70 76 -7 -49 c-14 -109 -102 -221
-214 -275 -146 -69 -232 1 -202 163 21 118 105 272 233 428 53 64 63 72 94 72
l35 0 -18 -27z m-685 -144 c80 -37 190 -118 225 -163 40 -53 35 -81 -26 -141
-29 -28 -68 -63 -86 -77 l-34 -25 121 -73 c67 -40 119 -75 117 -77 -4 -4 -244
41 -288 53 -16 5 -48 81 -48 115 0 9 7 23 17 30 32 27 93 111 93 129 0 19
-126 115 -134 102 -2 -4 -36 -144 -76 -312 -40 -168 -77 -308 -84 -312 -27
-18 -29 -2 -22 160 13 326 40 576 67 608 20 24 88 17 158 -17z"/>
<path d="M2115 3257 c-92 -31 -158 -88 -194 -167 -28 -61 -28 -178 -2 -237 87
-192 336 -238 484 -90 58 58 82 117 82 207 0 62 -5 85 -28 132 -30 62 -89 117
-150 143 -53 22 -144 27 -192 12z"/>
<path d="M3907 2639 c-63 -42 -127 -124 -127 -164 0 -26 91 27 139 81 74 84
67 135 -12 83z"/>
</g>
</svg>
